<?xml version="1.0" encoding="UTF-8" standalone="no"?>
<svg
   width="500"
   height="500"
   version="1.1"
   id="svg4728"
   xml:space="preserve"
   xmlns="http://www.w3.org/2000/svg"
   xmlns:svg="http://www.w3.org/2000/svg"><defs
     id="defs4732" /><g
     id="g472"
     transform="translate(-13.718769,-13.666938)"><g
       id="g4913"
       transform="matrix(0.8356591,0,0,0.8356591,134.92143,54.752163)"><circle
         fill="none"
         stroke="#266489"
         stroke-width="28.75"
         stroke-miterlimit="4"
         stroke-opacity="0.203922"
         cx="250"
         cy="250"
         id="ellipse4698"
         r="57.5" /><path
         fill="none"
         stroke="#266489"
         stroke-width="28.75"
         stroke-linecap="round"
         stroke-miterlimit="4"
         d="m 250,192.5 q 1.412,0 2.821,0.069 1.41,0.07 2.815,0.208 1.405,0.138 2.801,0.345 1.396,0.207 2.781,0.483 1.384,0.275 2.753,0.618 1.37,0.343 2.72,0.753 1.351,0.41 2.68,0.885 1.329,0.476 2.633,1.016 1.304,0.54 2.58,1.144 1.276,0.603 2.521,1.269 1.245,0.665 2.456,1.391 1.211,0.725 2.384,1.509 1.174,0.785 2.308,1.626 1.133,0.84 2.225,1.736 1.091,0.895 2.137,1.843 1.046,0.948 2.044,1.946 0.998,0.998 1.946,2.044 0.948,1.046 1.843,2.137 0.896,1.091 1.736,2.225 0.841,1.134 1.625,2.308 0.785,1.173 1.51,2.384 0.726,1.211 1.391,2.456 0.666,1.245 1.269,2.521 0.604,1.276 1.144,2.58 0.54,1.304 1.016,2.633 0.475,1.329 0.885,2.68 0.41,1.35 0.753,2.72 0.343,1.369 0.618,2.753 0.276,1.385 0.483,2.781 0.207,1.396 0.345,2.801 0.138,1.405 0.208,2.815 0.069,1.409 0.069,2.821 0,1.029 -0.037,2.058 -0.037,1.028 -0.11,2.055 -0.074,1.026 -0.184,2.05 -0.11,1.023 -0.257,2.042 -0.147,1.018 -0.33,2.031 -0.184,1.013 -0.403,2.018 -0.219,1.006 -0.474,2.003 -0.256,0.997 -0.546,1.984 -0.291,0.988 -0.617,1.964 -0.326,0.976 -0.686,1.94 -0.361,0.964 -0.756,1.914 -0.395,0.951 -0.823,1.887 -0.429,0.935 -0.891,1.855 -0.461,0.92 -0.956,1.822 -0.494,0.903 -1.021,1.787 -0.526,0.885 -1.084,1.75 -0.558,0.865 -1.146,1.709 -0.588,0.845 -1.206,1.667 -0.619,0.823 -1.266,1.624 -0.647,0.8 -1.322,1.576 -0.676,0.777 -1.379,1.529 -0.702,0.752 -1.432,1.478 -0.729,0.726 -1.484,1.426 -0.755,0.699 -1.534,1.372 -0.779,0.672 -1.582,1.316 -0.803,0.644 -1.628,1.258 -0.826,0.615 -1.673,1.2 -0.847,0.585 -1.714,1.139 -0.867,0.554 -1.754,1.077 -0.886,0.523 -1.791,1.013 -0.905,0.491 -1.826,0.949 -0.922,0.458 -1.859,0.883"
         id="path4700" /><circle
         fill="none"
         stroke="#68b9c0"
         stroke-width="28.75"
         stroke-miterlimit="4"
         stroke-opacity="0.203922"
         cx="250"
         cy="250"
         id="ellipse4702"
         r="115" /><path
         fill="none"
         stroke="#68b9c0"
         stroke-width="28.75"
         stroke-linecap="round"
         stroke-miterlimit="4"
         d="m 250,135 q 2.823,0 5.643,0.139 2.819,0.138 5.629,0.415 2.809,0.276 5.602,0.691 2.793,0.414 5.561,0.965 2.769,0.55 5.508,1.236 2.738,0.686 5.44,1.506 2.701,0.819 5.359,1.77 2.658,0.952 5.267,2.032 2.608,1.08 5.16,2.287 2.552,1.207 5.042,2.538 2.489,1.331 4.911,2.782 2.421,1.452 4.769,3.02 2.347,1.568 4.614,3.25 2.268,1.682 4.45,3.473 2.182,1.791 4.274,3.687 2.092,1.895 4.088,3.892 1.997,1.996 3.892,4.088 1.896,2.091 3.687,4.274 1.791,2.182 3.473,4.45 1.682,2.267 3.25,4.614 1.568,2.348 3.02,4.769 1.451,2.422 2.782,4.911 1.331,2.49 2.538,5.042 1.207,2.552 2.287,5.16 1.08,2.609 2.032,5.267 0.951,2.658 1.77,5.359 0.82,2.702 1.506,5.44 0.686,2.739 1.236,5.508 0.551,2.768 0.965,5.561 0.415,2.793 0.691,5.602 0.277,2.81 0.415,5.629 0.139,2.82 0.139,5.643 0,2.823 -0.139,5.643 -0.138,2.819 -0.415,5.629 -0.276,2.809 -0.691,5.602 -0.414,2.793 -0.965,5.561 -0.55,2.769 -1.236,5.508 -0.686,2.738 -1.506,5.44 -0.819,2.701 -1.77,5.359 -0.952,2.658 -2.032,5.267 -1.08,2.608 -2.287,5.16 -1.207,2.552 -2.538,5.042 -1.331,2.489 -2.782,4.911 -1.452,2.421 -3.02,4.769 -1.568,2.347 -3.25,4.614 -1.682,2.268 -3.473,4.45 -1.791,2.182 -3.687,4.274 -1.895,2.092 -3.892,4.088 -1.996,1.997 -4.088,3.892 -2.092,1.896 -4.274,3.687 -2.182,1.791 -4.45,3.473 -2.267,1.682 -4.614,3.25 -2.348,1.568 -4.769,3.02 -2.422,1.451 -4.911,2.782 -2.49,1.331 -5.042,2.538 -2.552,1.207 -5.16,2.287 -2.609,1.08 -5.267,2.032 -2.658,0.951 -5.359,1.77 -2.702,0.82 -5.44,1.506 -2.739,0.686 -5.508,1.236 -2.768,0.551 -5.561,0.965 -2.793,0.415 -5.602,0.691 -2.81,0.277 -5.629,0.415 Q 252.823,365 250,365 q -2.823,0 -5.643,-0.139 -2.819,-0.138 -5.629,-0.415 -2.809,-0.276 -5.602,-0.691 -2.793,-0.414 -5.561,-0.965 -2.769,-0.55 -5.508,-1.236 -2.738,-0.686 -5.44,-1.506 -2.701,-0.819 -5.359,-1.77 -2.658,-0.952 -5.267,-2.032 -2.608,-1.08 -5.16,-2.287 -2.552,-1.207 -5.042,-2.538 -2.489,-1.331 -4.911,-2.782 -2.421,-1.452 -4.769,-3.02 -2.347,-1.568 -4.614,-3.25 -2.268,-1.682 -4.45,-3.473 -2.183,-1.791 -4.274,-3.687 -2.092,-1.895 -4.088,-3.892 -1.997,-1.996 -3.892,-4.088 -1.896,-2.092 -3.687,-4.274 -1.791,-2.182 -3.473,-4.45 -1.682,-2.267 -3.25,-4.614 -1.568,-2.348 -3.02,-4.769 -1.451,-2.422 -2.782,-4.911 -1.331,-2.49 -2.538,-5.042 -1.207,-2.552 -2.287,-5.16 -1.081,-2.609 -2.032,-5.267 -0.951,-2.658 -1.77,-5.359 -0.82,-2.702 -1.506,-5.44 -0.686,-2.739 -1.236,-5.508 -0.551,-2.768 -0.965,-5.561 -0.415,-2.793 -0.691,-5.602 -0.277,-2.81 -0.415,-5.629 Q 135,252.823 135,250 q 0,-1.294 0.029,-2.587 0.029,-1.294 0.087,-2.586 0.059,-1.293 0.146,-2.584 0.087,-1.291 0.203,-2.579 0.117,-1.289 0.262,-2.575 0.145,-1.285 0.319,-2.568 0.175,-1.282 0.378,-2.559 0.202,-1.278 0.434,-2.551 0.232,-1.273 0.492,-2.541 0.26,-1.267 0.549,-2.528 0.289,-1.261 0.606,-2.516 0.317,-1.254 0.662,-2.501 0.345,-1.247 0.718,-2.486 0.373,-1.239 0.774,-2.469 0.401,-1.23 0.829,-2.451 0.429,-1.221 0.884,-2.432 0.456,-1.211 0.939,-2.411 0.483,-1.201 0.993,-2.39 0.51,-1.189 1.046,-2.366 0.537,-1.178 1.099,-2.343 0.563,-1.165 1.152,-2.317 0.589,-1.152 1.204,-2.291 0.614,-1.138 1.254,-2.263 0.641,-1.124 1.306,-2.234 0.665,-1.11 1.355,-2.204 0.69,-1.095 1.405,-2.173 0.714,-1.079 1.453,-2.141 0.738,-1.063 1.501,-2.108 0.762,-1.045 1.547,-2.074 0.786,-1.028 1.595,-2.038 0.808,-1.01 1.639,-2.001 0.831,-0.992 1.685,-1.965"
         id="path4704" /><circle
         fill="none"
         stroke="#90d585"
         stroke-width="28.75"
         stroke-miterlimit="4"
         stroke-opacity="0.203922"
         cx="250"
         cy="250"
         id="ellipse4706"
         r="172.5" /><path
         fill="none"
         stroke="#90d585"
         stroke-width="28.75"
         stroke-linecap="round"
         stroke-miterlimit="4"
         d="m 250,77.5 q 3.661,0 7.319,0.1553 3.658,0.1554 7.306,0.4658 3.647,0.3103 7.279,0.7752 3.631,0.4649 7.24,1.0834 3.608,0.6186 7.187,1.3896 3.579,0.7711 7.122,1.6933 3.543,0.9223 7.044,1.994 3.5,1.0717 6.952,2.291 3.453,1.2193 6.85,2.5839 3.397,1.3647 6.733,2.8722 3.337,1.5076 6.606,3.1553 3.269,1.6478 6.466,3.4328 3.196,1.7852 6.314,3.7042 3.118,1.919 6.151,3.968 3.034,2.05 5.978,4.226 2.944,2.177 5.793,4.476 2.849,2.299 5.597,4.717 2.749,2.419 5.393,4.951 2.644,2.533 5.178,5.175 2.533,2.643 4.953,5.39 2.419,2.748 4.72,5.596 2.301,2.848 4.479,5.791 2.178,2.942 4.229,5.975 2.051,3.033 3.971,6.149 1.921,3.117 3.707,6.313 1.787,3.196 3.436,6.464 1.649,3.269 3.159,6.604 1.509,3.336 2.875,6.732 1.366,3.397 2.587,6.848 1.221,3.452 2.295,6.952 1.073,3.5 1.997,7.043 0.924,3.542 1.697,7.121"
         id="path4708" /></g><g
       aria-label="µ"
       id="text4905"
       style="font-size:266.667px;line-height:1.25;font-family:'MV Boli';-inkscape-font-specification:'MV Boli, Normal';letter-spacing:0px;word-spacing:0px;fill:#266489"><path
         d="m 89.026156,175.71109 q 0.520834,-2.08333 1.432294,-3.51563 1.041668,-1.5625 2.083336,-2.47396 1.171876,-0.91146 2.083336,-1.30208 0.911459,-0.39063 1.432293,-0.39063 1.432293,0 3.385421,0.39063 1.953124,0.26041 3.776044,0.52083 2.08334,0.39062 4.03647,0.78125 3.38542,0.13021 4.81771,2.73438 1.5625,2.60417 1.5625,6.25001 0,2.86458 -0.78125,5.33854 -4.42709,16.27607 -8.07293,28.38546 -3.64583,11.97918 -6.250004,20.44273 -2.473961,8.46355 -3.906254,13.8021 -1.302085,5.33855 -1.302085,8.07293 0,2.73437 0.651042,6.11979 0.781251,3.38543 2.213545,6.38022 1.432293,2.86459 3.645837,4.81772 2.213549,1.95312 5.338549,1.95312 5.46876,0 11.06772,-3.38542 5.59897,-3.38542 10.6771,-8.20313 5.07813,-4.94793 9.11459,-10.41668 4.16667,-5.59897 6.77084,-9.89585 l 3.38542,-5.85938 q 3.12501,-5.46876 5.72918,-12.50002 2.73438,-7.16146 4.6875,-14.32293 2.08334,-7.16147 3.51563,-13.41147 1.4323,-6.38022 2.21355,-10.15627 l 3.38542,-17.31773 q 1.04167,-4.94792 3.125,-6.77084 2.21355,-1.95313 7.29168,-1.95313 3.25521,0 5.85938,0.78126 2.60417,0.65104 4.42709,2.47396 1.82292,1.82292 2.73438,4.94792 0.91146,2.9948 0.91146,7.81251 0,5.59896 -1.82292,13.8021 -1.69271,8.07293 -3.77605,16.27606 -1.17188,4.81772 -2.47396,10.28647 -1.17188,5.33855 -2.21354,10.80731 -0.91146,5.33855 -1.56251,10.28647 -0.52083,4.81771 -0.52083,8.72397 0,6.64063 0.39063,13.28126 0.52083,6.64064 0.52083,14.06252 0,3.38542 -0.26042,5.98959 -0.13021,2.60417 -0.52083,3.90626 -1.4323,5.07813 -3.77605,7.55209 -2.21354,2.47396 -7.6823,2.47396 -3.77605,0 -5.98959,-0.91146 -2.21354,-0.78125 -3.51563,-2.21354 -1.17188,-1.4323 -1.5625,-3.12501 -0.39063,-1.82292 -0.52083,-3.64584 l -1.4323,-24.6094 -1.17187,0.39062 q -4.29689,5.46876 -9.37502,12.2396 -5.07813,6.77084 -11.19793,12.63023 -6.1198,5.85938 -13.41147,9.76563 -7.16147,4.03647 -15.62502,4.03647 -1.95313,0 -4.296881,-0.91146 -2.343752,-0.78125 -4.947922,-2.34376 -2.60417,-1.5625 -5.20834,-3.64583 -2.473961,-2.21355 -4.817714,-4.94793 -1.041668,4.16668 -2.083336,8.33335 -1.041668,4.29688 -2.213544,8.33334 -1.041668,4.16667 -2.213545,7.81251 -1.171876,3.64584 -2.343753,6.38022 -0.130208,0.39062 -1.041668,2.21354 -0.781251,1.82292 -1.953127,4.29688 -1.041668,2.60417 -2.343753,5.46876 -1.171876,2.86458 -2.343753,5.33855 -1.171876,2.60417 -2.083336,4.42708 -0.781251,1.82292 -0.911459,2.08334 -4.036463,6.25001 -7.031259,11.19793 -2.864586,4.94792 -5.98959,8.46355 -2.994796,3.51563 -6.770842,5.33855 -3.776046,1.82292 -9.50522,1.82292 -2.864587,0 -4.947923,-2.34375 -2.083335,-2.21355 -2.083335,-6.51043 0,-2.99479 1.432293,-6.64063 1.432293,-3.51563 3.645838,-7.29168 2.213544,-3.77604 4.817714,-7.42188 2.60417,-3.51563 4.947923,-6.51042 1.69271,-2.08334 3.776046,-6.64064 2.213544,-4.42709 4.427089,-10.15626 2.343753,-5.59897 4.29688,-11.84897 2.083336,-6.25001 3.515629,-12.10939 1.822919,-7.81251 3.385421,-13.28127 1.69271,-5.59896 3.255212,-10.6771 1.562502,-5.07813 3.255213,-10.8073 1.69271,-5.72917 3.645837,-14.19273 0.651043,-2.99479 1.432294,-5.98959 0.911459,-3.125 1.69271,-5.85938 l 1.822919,-6.77084 q 2.473962,-9.76564 4.427089,-17.18752 1.953127,-7.42189 3.385421,-13.02085 1.562502,-5.59897 2.60417,-9.50522 1.041667,-4.03646 1.822918,-7.03126 z"
         id="path398" /></g></g></svg>
